<svg width="58" height="55" viewBox="0 0 58 55" fill="none" xmlns="http://www.w3.org/2000/svg">
<path d="M11.1226 7.89526C4.93812 12.6741 1 19.8828 1 27.9473C1 42.3358 13.536 54 29 54C44.464 54 57 42.3358 57 27.9473C57 19.8828 53.0619 12.6741 46.8774 7.89526" stroke="#282932"/>
<path d="M16.3885 30.8378C15.2442 30.8378 14.4813 30.6471 14.0999 30.2657C13.7185 29.8842 13.5278 29.4916 13.5278 29.0877C13.5278 28.7063 13.6624 28.4258 13.9316 28.2463C14.1784 28.0669 14.4252 27.9771 14.672 27.9771C15.1432 27.9771 15.3788 28.179 15.3788 28.5829C15.3788 28.7624 15.3115 28.9195 15.1769 29.0541C15.0198 29.1663 14.8291 29.2224 14.6047 29.2224C14.4477 29.2224 14.3131 29.1999 14.2009 29.155C14.0887 29.1102 14.0326 29.0877 14.0326 29.0877C14.0326 29.3794 14.1672 29.6823 14.4365 29.9964C14.6833 30.3105 15.2218 30.4676 16.0519 30.4676C16.9718 30.4676 17.8132 30.2208 18.5761 29.7272C19.3389 29.2111 20.0681 28.538 20.7637 27.7079C21.4816 26.8553 22.2108 25.9241 22.9513 24.9145C23.6917 23.8824 24.4882 22.8503 25.3408 21.8182C25.9466 21.1002 26.6533 20.2813 27.4611 19.3613C28.2912 18.4414 29.1999 17.544 30.1872 16.6689C31.1968 15.7714 32.2626 14.9861 33.3844 14.313C34.5063 13.6175 35.673 13.1463 36.8846 12.8995C37.1987 12.8322 37.3557 12.8546 37.3557 12.9668C37.3557 13.079 37.1987 13.1688 36.8846 13.2361C35.8749 13.4604 34.8877 13.9428 33.9229 14.6832C32.9581 15.4237 31.9933 16.3324 31.0285 17.4093C30.0862 18.4639 29.1438 19.5969 28.2015 20.8085C27.2591 22.0201 26.3168 23.2205 25.3744 24.4096C24.4321 25.5988 23.4673 26.6758 22.4801 27.6406C21.5153 28.6053 20.5281 29.3794 19.5184 29.9628C18.5088 30.5461 17.4654 30.8378 16.3885 30.8378ZM29.3794 30.8378C28.4146 30.8378 27.7752 30.6583 27.4611 30.2993C27.1694 29.9179 27.0236 29.5028 27.0236 29.0541C27.0236 28.2912 27.1918 27.6293 27.5284 27.0684C27.8649 26.5075 28.2464 26.0139 28.6727 25.5876C29.099 25.1613 29.4804 24.7574 29.817 24.376C30.1535 23.9946 30.3218 23.6131 30.3218 23.2317C30.3218 22.9176 30.1759 22.7044 29.8843 22.5923C29.5926 22.4801 29.3121 22.424 29.0429 22.424C28.8634 22.424 28.7063 22.4352 28.5717 22.4576C28.4595 22.4801 28.4034 22.5137 28.4034 22.5586C28.4034 22.6483 28.4595 22.7157 28.5717 22.7605C28.7063 22.783 28.8522 22.7942 29.0092 22.7942C29.7272 22.7942 30.434 22.5923 31.1295 22.1884C31.8475 21.7621 32.4982 21.2236 33.0815 20.5729C33.6649 19.8998 34.1361 19.1931 34.495 18.4526C34.854 17.7122 35.0335 17.0279 35.0335 16.3997C35.0335 15.4124 34.5399 14.6159 33.5527 14.0101C32.5655 13.3819 31.0285 13.0678 28.9419 13.0678C27.4386 13.0678 26.0251 13.3146 24.7013 13.8082C23.3776 14.2794 22.2221 14.9076 21.2348 15.6929C20.2476 16.4558 19.4735 17.2747 18.9126 18.1497C18.3517 19.0023 18.0712 19.7989 18.0712 20.5393C18.0712 21.0778 18.2395 21.5489 18.5761 21.9528C18.9126 22.3567 19.4174 22.5586 20.0906 22.5586C20.8085 22.5586 21.5377 22.3006 22.2782 21.7845C23.041 21.2685 23.7478 20.629 24.3984 19.8662C25.0715 19.0809 25.6325 18.2619 26.0812 17.4093C26.5299 16.5567 26.8104 15.7939 26.9226 15.1208C26.9675 14.9188 27.0348 14.8179 27.1245 14.8179C27.2143 14.8179 27.2591 14.9188 27.2591 15.1208C27.2591 16.1977 27.0572 17.2074 26.6533 18.1497C26.2495 19.0921 25.711 19.9223 25.0379 20.6402C24.3648 21.3358 23.6131 21.8855 22.783 22.2894C21.9753 22.6932 21.1451 22.8951 20.2925 22.8951C19.4399 22.8951 18.778 22.6708 18.3068 22.222C17.8581 21.7733 17.6337 21.1451 17.6337 20.3373C17.6337 19.5969 17.9254 18.7892 18.5088 17.9142C19.0921 17.0391 19.9111 16.209 20.9656 15.4237C22.0426 14.6159 23.299 13.9653 24.735 13.4717C26.1934 12.9556 27.7864 12.6976 29.5141 12.6976C30.7256 12.6976 31.8363 12.8771 32.8459 13.2361C33.8556 13.5951 34.6633 14.1335 35.2691 14.8515C35.8973 15.5695 36.2115 16.4782 36.2115 17.5776C36.2115 18.2956 35.9759 18.9911 35.5047 19.6642C35.056 20.3149 34.4726 20.8983 33.7546 21.4143C33.0366 21.9304 32.2738 22.3342 31.4661 22.6259C30.6583 22.9176 29.8955 23.0634 29.1775 23.0634C28.7288 23.0634 28.4034 23.0298 28.2015 22.9625C28.022 22.8727 27.9323 22.7493 27.9323 22.5923C27.9323 22.4801 28.0108 22.3791 28.1678 22.2894C28.3473 22.1996 28.6727 22.1547 29.1438 22.1547C29.4131 22.1547 29.716 22.1996 30.0525 22.2894C30.3891 22.3567 30.6808 22.5137 30.9276 22.7605C31.1968 23.0073 31.3314 23.3888 31.3314 23.9048C31.3314 24.6004 31.1519 25.2286 30.793 25.7895C30.4564 26.3504 30.0638 26.8553 29.615 27.304C29.1663 27.7303 28.7624 28.1342 28.4034 28.5156C28.0669 28.8746 27.8986 29.2336 27.8986 29.5926C27.8986 29.9067 28.0108 30.131 28.2351 30.2657C28.482 30.4003 28.7849 30.4676 29.1438 30.4676C29.7945 30.4676 30.4452 30.2881 31.0959 29.9291C31.769 29.5477 32.3972 29.0541 32.9806 28.4483C33.5639 27.8425 34.0463 27.1918 34.4277 26.4963C34.8316 25.8007 35.0784 25.1164 35.1681 24.4433C35.213 24.1965 35.2803 24.1067 35.3701 24.1741C35.4823 24.2414 35.5496 24.3872 35.572 24.6116C35.6618 25.1501 35.5159 25.7783 35.1345 26.4963C34.7755 27.1918 34.2707 27.8761 33.62 28.5492C32.9918 29.1999 32.2962 29.7496 31.5334 30.1984C30.793 30.6247 30.075 30.8378 29.3794 30.8378Z" fill="#282932"/>
<path d="M26.1308 41.0717C26.1851 41.0808 26.2417 41.0876 26.3006 41.0921C26.3639 41.0921 26.4273 41.0853 26.4907 41.0717C26.4861 41.0763 26.4477 41.1306 26.3752 41.2347C26.3028 41.3343 26.2032 41.4701 26.0765 41.6421C25.9543 41.8095 25.8162 41.9996 25.6623 42.2124C25.513 42.4251 25.3568 42.6446 25.1939 42.8709C25.0355 43.0927 24.8793 43.31 24.7254 43.5227C24.576 43.7309 24.438 43.9211 24.3112 44.0931C24.189 44.2651 24.0917 44.4031 24.0193 44.5072C23.9469 44.6113 23.9084 44.6656 23.9039 44.6702C23.9039 44.6702 23.9061 44.6747 23.9107 44.6837C23.9152 44.6883 23.9175 44.6928 23.9175 44.6973C24.0306 44.5751 24.1528 44.4416 24.2841 44.2967C24.4153 44.1519 24.5489 44.0161 24.6847 43.8894C24.8205 43.7581 24.954 43.6517 25.0852 43.5703C25.221 43.4888 25.3455 43.4481 25.4587 43.4481C25.6035 43.4481 25.6963 43.482 25.737 43.5499C25.7823 43.6133 25.8049 43.6698 25.8049 43.7196C25.8049 43.8147 25.7732 43.9188 25.7099 44.0319C25.6465 44.1451 25.5673 44.2583 25.4722 44.3714C25.3817 44.4846 25.2889 44.5909 25.1939 44.6905C25.1033 44.7856 25.0264 44.8693 24.963 44.9417C24.8997 45.0142 24.868 45.0662 24.868 45.0979C24.868 45.1341 24.8951 45.1567 24.9495 45.1658C25.0083 45.1703 25.0558 45.1726 25.092 45.1726C25.1961 45.1726 25.3093 45.1341 25.4315 45.0572C25.5537 44.9802 25.6737 44.8852 25.7913 44.772C25.909 44.6588 26.0154 44.5479 26.1105 44.4393C26.2055 44.3307 26.2779 44.2447 26.3277 44.1813L26.382 44.2221C26.3368 44.2764 26.2689 44.3601 26.1783 44.4733C26.0878 44.5819 25.9792 44.6973 25.8525 44.8195C25.7302 44.9372 25.5967 45.0391 25.4519 45.1251C25.307 45.2065 25.1554 45.2473 24.997 45.2473C24.9381 45.2473 24.8702 45.2314 24.7933 45.1997C24.7163 45.1726 24.6779 45.1115 24.6779 45.0164C24.6779 44.9395 24.7073 44.8512 24.7661 44.7516C24.8295 44.6475 24.9065 44.5412 24.997 44.4325C25.0875 44.3194 25.178 44.2107 25.2686 44.1066C25.3636 44.0025 25.4406 43.9075 25.4994 43.8215C25.5628 43.7309 25.5945 43.6585 25.5945 43.6042C25.5945 43.5454 25.5515 43.5159 25.4655 43.5159C25.3568 43.5159 25.2256 43.568 25.0717 43.6721C24.9223 43.7717 24.7639 43.9052 24.5964 44.0727C24.4289 44.2402 24.2615 44.4212 24.094 44.6158C23.931 44.8105 23.7794 45.0028 23.6391 45.1929C23.5802 45.1839 23.5146 45.1794 23.4422 45.1794C23.3698 45.1794 23.3019 45.1884 23.2385 45.2065C23.2385 45.2065 23.2792 45.1499 23.3607 45.0368C23.4422 44.9191 23.5531 44.7629 23.6934 44.5683C23.8292 44.3692 23.9831 44.1474 24.1551 43.9029C24.3271 43.654 24.5036 43.4005 24.6847 43.1425C24.8657 42.88 25.0422 42.6265 25.2142 42.3821C25.3862 42.1332 25.5401 41.9114 25.6759 41.7167C25.8162 41.5176 25.9271 41.3614 26.0086 41.2483C26.0901 41.1306 26.1308 41.0717 26.1308 41.0717ZM27.4862 43.4548C27.7125 43.4548 27.8257 43.5635 27.8257 43.7807C27.8257 43.9482 27.7872 44.1202 27.7103 44.2967C27.6333 44.4687 27.5292 44.6272 27.398 44.772C27.2667 44.9123 27.1241 45.0277 26.9702 45.1183C26.8163 45.2043 26.6602 45.2473 26.5017 45.2473C26.3795 45.2473 26.2777 45.2178 26.1962 45.159C26.1102 45.0956 26.0672 44.9938 26.0672 44.8535C26.0672 44.7222 26.1057 44.5774 26.1826 44.4189C26.2596 44.256 26.3637 44.1021 26.495 43.9573C26.6307 43.8124 26.7824 43.6925 26.9499 43.5974C27.1219 43.5024 27.3006 43.4548 27.4862 43.4548ZM27.5609 43.5499C27.484 43.5499 27.3934 43.5838 27.2893 43.6517C27.1852 43.7196 27.0789 43.8079 26.9702 43.9165C26.8616 44.0252 26.7597 44.1428 26.6647 44.2696C26.5742 44.3918 26.4995 44.5117 26.4406 44.6294C26.3863 44.7471 26.3592 44.8467 26.3592 44.9282C26.3592 45.0187 26.3841 45.0821 26.4339 45.1183C26.4836 45.1499 26.5402 45.1658 26.6036 45.1658C26.7077 45.1658 26.8254 45.1228 26.9566 45.0368C27.0879 44.9463 27.2146 44.8331 27.3369 44.6973C27.4591 44.5615 27.5586 44.4189 27.6356 44.2696C27.7171 44.1157 27.7578 43.9754 27.7578 43.8486C27.7578 43.7309 27.7374 43.6517 27.6967 43.611C27.656 43.5703 27.6107 43.5499 27.5609 43.5499ZM27.6831 44.2492C27.7057 44.2492 27.7148 44.2583 27.7103 44.2764C27.7103 44.2899 27.699 44.2967 27.6763 44.2967C27.6582 44.2967 27.6311 44.3216 27.5949 44.3714C27.5632 44.4167 27.5337 44.4642 27.5066 44.514C27.4794 44.5638 27.4659 44.5909 27.4659 44.5955C27.4659 44.6996 27.5043 44.7516 27.5813 44.7516C27.6537 44.7516 27.7352 44.7177 27.8257 44.6498C27.9207 44.5819 28.0113 44.5049 28.0973 44.4189C28.1878 44.3284 28.2602 44.2492 28.3145 44.1813L28.3689 44.2288C28.31 44.2967 28.2353 44.3782 28.1448 44.4733C28.0543 44.5638 27.9592 44.6453 27.8596 44.7177C27.7601 44.7856 27.6673 44.8195 27.5813 44.8195C27.5089 44.8195 27.4591 44.8037 27.4319 44.772C27.4047 44.7403 27.3912 44.6837 27.3912 44.6023C27.3912 44.4936 27.4274 44.4076 27.4998 44.3443C27.5767 44.2809 27.6379 44.2492 27.6831 44.2492ZM29.6721 42.2531C29.7128 42.2712 29.7716 42.2803 29.8486 42.2803C29.9301 42.2757 29.9934 42.2689 30.0387 42.2599C29.8939 42.4591 29.7332 42.6786 29.5566 42.9185C29.3801 43.1584 29.2013 43.3983 29.0203 43.6382C28.8437 43.8735 28.6785 44.0953 28.5246 44.3035C28.3753 44.5072 28.2553 44.6792 28.1648 44.8195C28.0743 44.9598 28.029 45.0481 28.029 45.0843C28.029 45.1115 28.0449 45.1318 28.0765 45.1454C28.1037 45.159 28.1399 45.1658 28.1852 45.1658C28.2847 45.1658 28.3934 45.1318 28.5111 45.0639C28.6333 44.9915 28.7532 44.9033 28.8709 44.7992C28.9931 44.6905 29.104 44.5819 29.2036 44.4733C29.3077 44.3601 29.3892 44.2628 29.448 44.1813L29.5023 44.2221C29.439 44.3035 29.3552 44.4008 29.2511 44.514C29.147 44.6272 29.0316 44.7403 28.9049 44.8535C28.7781 44.9666 28.6469 45.0617 28.5111 45.1386C28.3798 45.2111 28.2531 45.2473 28.1309 45.2473C28.0449 45.2473 27.977 45.2292 27.9272 45.1929C27.8729 45.1613 27.8457 45.1047 27.8457 45.0232C27.8457 44.9508 27.8887 44.8399 27.9747 44.6905C28.0607 44.5366 28.1716 44.3601 28.3074 44.1609C28.4477 43.9618 28.5993 43.7513 28.7623 43.5295C28.9252 43.3032 29.0859 43.0814 29.2443 42.8642C29.4073 42.6424 29.5499 42.4387 29.6721 42.2531ZM28.9252 43.0135C28.88 43.0135 28.8573 42.9999 28.8573 42.9728C28.8573 42.9502 28.88 42.9388 28.9252 42.9388H30.2152C30.2288 42.9388 30.2424 42.9411 30.256 42.9456C30.2741 42.9502 30.2831 42.9592 30.2831 42.9728C30.2831 42.9909 30.2741 43.0022 30.256 43.0067C30.2424 43.0113 30.2288 43.0135 30.2152 43.0135H28.9252ZM29.7536 45.2473C29.5409 45.2473 29.4006 45.1997 29.3327 45.1047C29.2648 45.0051 29.2309 44.901 29.2309 44.7924C29.2309 44.6068 29.2784 44.4348 29.3734 44.2764C29.4685 44.1134 29.5907 43.9686 29.7401 43.8418C29.8894 43.7151 30.0433 43.6178 30.2017 43.5499C30.3647 43.4775 30.5095 43.4413 30.6363 43.4413C30.7268 43.4413 30.7992 43.4548 30.8535 43.482C30.9079 43.5046 30.935 43.5544 30.935 43.6314C30.935 43.7038 30.892 43.7807 30.806 43.8622C30.72 43.9437 30.6114 44.0229 30.4801 44.0998C30.3489 44.1723 30.2108 44.2402 30.066 44.3035C29.9256 44.3624 29.7966 44.4099 29.679 44.4461C29.5613 44.4823 29.4753 44.5004 29.421 44.5004C29.421 44.5004 29.421 44.4891 29.421 44.4665C29.421 44.4393 29.421 44.4257 29.421 44.4257C29.4617 44.4303 29.5319 44.4167 29.6314 44.385C29.7355 44.3533 29.851 44.3126 29.9777 44.2628C30.1044 44.2085 30.2266 44.1474 30.3443 44.0795C30.4665 44.0116 30.5661 43.9392 30.6431 43.8622C30.7245 43.7853 30.7653 43.7106 30.7653 43.6382C30.7653 43.6019 30.754 43.5703 30.7313 43.5431C30.7132 43.5159 30.6793 43.5024 30.6295 43.5024C30.5571 43.5024 30.4688 43.5386 30.3647 43.611C30.2651 43.6789 30.1633 43.7694 30.0592 43.8826C29.9551 43.9957 29.8577 44.1157 29.7672 44.2424C29.6767 44.3692 29.602 44.4914 29.5432 44.6091C29.4889 44.7222 29.4617 44.8173 29.4617 44.8942C29.4617 44.9847 29.4889 45.0526 29.5432 45.0979C29.5975 45.1432 29.6767 45.1658 29.7808 45.1658C29.9619 45.1658 30.1316 45.1228 30.29 45.0368C30.453 44.9463 30.6001 44.8422 30.7313 44.7245C30.8626 44.6023 30.9735 44.4891 31.064 44.385C31.1545 44.2764 31.2156 44.2062 31.2473 44.1745C31.2473 44.1745 31.2541 44.1813 31.2677 44.1949C31.2858 44.2085 31.2949 44.2153 31.2949 44.2153C31.2632 44.2515 31.2021 44.3239 31.1115 44.4325C31.021 44.5412 30.9079 44.6588 30.7721 44.7856C30.6363 44.9123 30.4824 45.0209 30.3104 45.1115C30.1384 45.202 29.9528 45.2473 29.7536 45.2473ZM33.404 41.0717C33.4538 41.0808 33.5149 41.0853 33.5873 41.0853C33.6643 41.0853 33.7254 41.0808 33.7706 41.0717L31.4079 44.3646C31.3355 44.4733 31.2653 44.5751 31.1974 44.6702C31.1295 44.7652 31.0752 44.8489 31.0345 44.9214C30.9892 44.9893 30.9666 45.0436 30.9666 45.0843C30.9666 45.116 30.9801 45.1386 31.0073 45.1522C31.0299 45.1658 31.0639 45.1726 31.1091 45.1726C31.2133 45.1726 31.3287 45.1364 31.4554 45.0639C31.5821 44.987 31.7066 44.8919 31.8288 44.7788C31.9556 44.6656 32.071 44.5547 32.1751 44.4461C32.2837 44.3375 32.3697 44.2492 32.4331 44.1813L32.4806 44.2221C32.4218 44.2854 32.3403 44.3737 32.2362 44.4868C32.1321 44.6 32.0121 44.7154 31.8764 44.8331C31.7451 44.9463 31.607 45.0436 31.4622 45.1251C31.3219 45.2065 31.1838 45.2473 31.048 45.2473C30.9756 45.2473 30.9145 45.2269 30.8647 45.1862C30.8104 45.1454 30.7833 45.0866 30.7833 45.0096C30.7833 44.9598 30.8014 44.8965 30.8376 44.8195C30.8738 44.7426 30.919 44.6634 30.9734 44.5819C31.0231 44.4959 31.0729 44.4189 31.1227 44.3511C31.168 44.2786 31.2042 44.2243 31.2314 44.1881L33.404 41.0717Z" fill="#282932"/>
<path d="M35.8036 2.52519L33.3841 2.19801L32.3026 0.157832C32.273 0.101973 32.2244 0.0567541 32.1644 0.029268C32.0138 -0.0398908 31.8309 0.0177415 31.7556 0.157832L30.674 2.19801L28.2546 2.52519C28.1878 2.53406 28.1269 2.56331 28.0802 2.60765C28.0237 2.66163 27.9926 2.73426 27.9937 2.80957C27.9948 2.88489 28.0279 2.95672 28.0859 3.0093L29.8364 4.59729L29.4228 6.83963C29.4131 6.89179 29.4193 6.94544 29.4407 6.99449C29.4621 7.04353 29.4979 7.08602 29.5439 7.11713C29.59 7.14824 29.6444 7.16672 29.7012 7.17049C29.7579 7.17425 29.8147 7.16315 29.865 7.13843L32.0291 6.07977L34.1932 7.13843C34.2523 7.16769 34.3209 7.17744 34.3866 7.1668C34.5524 7.1402 34.6639 6.99391 34.6353 6.83963L34.2218 4.59729L35.9723 3.0093C36.0199 2.96585 36.0514 2.90911 36.0609 2.84704C36.0866 2.69188 35.9704 2.54824 35.8036 2.52519Z" fill="#E88E07"/>
<path d="M15.7157 6.29018L14.5018 6.12604L13.9592 5.1025C13.9444 5.07447 13.92 5.05179 13.8899 5.038C13.8144 5.0033 13.7226 5.03222 13.6848 5.1025L13.1422 6.12604L11.9284 6.29018C11.8949 6.29463 11.8643 6.3093 11.8409 6.33155C11.8126 6.35863 11.7969 6.39507 11.7975 6.43285C11.798 6.47063 11.8147 6.50667 11.8437 6.53305L12.722 7.32973L12.5145 8.45469C12.5096 8.48086 12.5127 8.50777 12.5235 8.53238C12.5342 8.55698 12.5521 8.5783 12.5752 8.59391C12.5983 8.60951 12.6257 8.61879 12.6541 8.62068C12.6826 8.62256 12.7111 8.61699 12.7363 8.60459L13.822 8.07347L14.9077 8.60459C14.9373 8.61927 14.9718 8.62417 15.0048 8.61883C15.0879 8.60548 15.1439 8.53209 15.1295 8.45469L14.9221 7.32973L15.8003 6.53305C15.8242 6.51125 15.8399 6.48279 15.8447 6.45165C15.8576 6.3738 15.7993 6.30174 15.7157 6.29018Z" fill="#E88E07"/>
<path d="M46.9444 5.35821L44.5029 5.02806L43.4115 2.96933C43.3817 2.91296 43.3326 2.86733 43.2721 2.83959C43.1201 2.76981 42.9355 2.82796 42.8595 2.96933L41.7681 5.02806L39.3267 5.35821C39.2593 5.36715 39.1978 5.39668 39.1507 5.44141C39.0937 5.49589 39.0623 5.56918 39.0634 5.64518C39.0645 5.72118 39.098 5.79367 39.1565 5.84672L40.9229 7.44915L40.5056 9.71188C40.4958 9.76451 40.502 9.81865 40.5236 9.86814C40.5452 9.91763 40.5813 9.96051 40.6278 9.9919C40.6742 10.0233 40.7292 10.0419 40.7864 10.0457C40.8437 10.0495 40.901 10.0383 40.9517 10.0134L43.1355 8.94511L45.3193 10.0134C45.3789 10.0429 45.4481 10.0528 45.5145 10.042C45.6818 10.0152 45.7943 9.86756 45.7655 9.71188L45.3481 7.44915L47.1146 5.84672C47.1626 5.80288 47.1944 5.74562 47.204 5.68299C47.23 5.52641 47.1126 5.38147 46.9444 5.35821Z" fill="#E88E07"/>
<path d="M24.5666 3.20254L22.7014 2.95032L21.8677 1.37753C21.8449 1.33447 21.8074 1.29961 21.7611 1.27842C21.6451 1.22511 21.504 1.26954 21.446 1.37753L20.6122 2.95032L18.747 3.20254C18.6956 3.20938 18.6486 3.23193 18.6126 3.26611C18.5691 3.30773 18.5451 3.36372 18.5459 3.42178C18.5467 3.47983 18.5723 3.53521 18.617 3.57574L19.9665 4.79993L19.6476 6.52857C19.6402 6.56878 19.645 6.61013 19.6615 6.64794C19.678 6.68576 19.7055 6.71851 19.741 6.74249C19.7765 6.76647 19.8185 6.78072 19.8622 6.78363C19.906 6.78653 19.9497 6.77797 19.9885 6.75891L21.6568 5.94279L23.3251 6.75891C23.3707 6.78147 23.4236 6.78899 23.4743 6.78079C23.6021 6.76028 23.688 6.6475 23.666 6.52857L23.3472 4.79993L24.6967 3.57574C24.7334 3.54225 24.7576 3.49851 24.765 3.45066C24.7848 3.33104 24.6952 3.22031 24.5666 3.20254Z" fill="#E88E07"/>
</svg>
