<svg width="43" height="44" viewBox="0 0 43 44" fill="none" xmlns="http://www.w3.org/2000/svg">
<path d="M8.5 6.28699C3.91781 10.0923 1 15.8326 1 22.2544C1 33.7118 10.2881 43 21.7456 43C33.2031 43 42.4912 33.7118 42.4912 22.2544C42.4912 15.8326 39.5734 10.0923 34.9912 6.28699" stroke="black"/>
<path d="M12.1923 29.3029C11.048 29.3029 10.2851 29.1122 9.90371 28.7308C9.52228 28.3493 9.33157 27.9567 9.33157 27.5528C9.33157 27.1714 9.46619 26.8909 9.73543 26.7114C9.98224 26.5319 10.229 26.4422 10.4758 26.4422C10.947 26.4422 11.1826 26.6441 11.1826 27.048C11.1826 27.2275 11.1153 27.3845 10.9807 27.5192C10.8236 27.6313 10.6329 27.6874 10.4085 27.6874C10.2515 27.6874 10.1169 27.665 10.0047 27.6201C9.89249 27.5753 9.8364 27.5528 9.8364 27.5528C9.8364 27.8445 9.97102 28.1474 10.2403 28.4615C10.4871 28.7756 11.0256 28.9327 11.8557 28.9327C12.7756 28.9327 13.617 28.6859 14.3799 28.1923C15.1427 27.6762 15.8719 27.0031 16.5675 26.173C17.2854 25.3203 18.0146 24.3892 18.7551 23.3796C19.4955 22.3475 20.292 21.3154 21.1446 20.2833C21.7504 19.5653 22.4572 18.7463 23.2649 17.8264C24.095 16.9065 25.0037 16.009 25.991 15.134C27.0006 14.2365 28.0664 13.4512 29.1882 12.7781C30.3101 12.0826 31.4768 11.6114 32.6884 11.3646C33.0025 11.2973 33.1595 11.3197 33.1595 11.4319C33.1595 11.5441 33.0025 11.6338 32.6884 11.7012C31.6787 11.9255 30.6915 12.4079 29.7267 13.1483C28.7619 13.8888 27.7971 14.7974 26.8323 15.8744C25.89 16.929 24.9476 18.062 24.0053 19.2736C23.0629 20.4852 22.1206 21.6856 21.1782 22.8747C20.2359 24.0639 19.2711 25.1409 18.2839 26.1056C17.3191 27.0704 16.3319 27.8445 15.3222 28.4279C14.3126 29.0112 13.2692 29.3029 12.1923 29.3029ZM25.1832 29.3029C24.2184 29.3029 23.579 29.1234 23.2649 28.7644C22.9732 28.383 22.8274 27.9679 22.8274 27.5192C22.8274 26.7563 22.9956 26.0944 23.3322 25.5335C23.6687 24.9726 24.0502 24.479 24.4765 24.0527C24.9028 23.6264 25.2842 23.2225 25.6208 22.8411C25.9573 22.4596 26.1256 22.0782 26.1256 21.6968C26.1256 21.3827 25.9797 21.1695 25.6881 21.0573C25.3964 20.9452 25.1159 20.8891 24.8467 20.8891C24.6672 20.8891 24.5101 20.9003 24.3755 20.9227C24.2633 20.9452 24.2072 20.9788 24.2072 21.0237C24.2072 21.1134 24.2633 21.1807 24.3755 21.2256C24.5101 21.2481 24.656 21.2593 24.813 21.2593C25.531 21.2593 26.2378 21.0573 26.9333 20.6535C27.6513 20.2272 28.302 19.6887 28.8853 19.038C29.4687 18.3649 29.9399 17.6582 30.2988 16.9177C30.6578 16.1773 30.8373 15.493 30.8373 14.8648C30.8373 13.8775 30.3437 13.081 29.3565 12.4752C28.3693 11.847 26.8323 11.5329 24.7457 11.5329C23.2424 11.5329 21.8289 11.7797 20.5051 12.2733C19.1814 12.7445 18.0259 13.3727 17.0386 14.158C16.0514 14.9208 15.2773 15.7398 14.7164 16.6148C14.1555 17.4674 13.875 18.2639 13.875 19.0044C13.875 19.5428 14.0433 20.014 14.3799 20.4179C14.7164 20.8218 15.2213 21.0237 15.8944 21.0237C16.6123 21.0237 17.3415 20.7657 18.082 20.2496C18.8448 19.7336 19.5516 19.0941 20.2022 18.3313C20.8753 17.546 21.4363 16.727 21.885 15.8744C22.3337 15.0218 22.6142 14.259 22.7264 13.5859C22.7713 13.3839 22.8386 13.283 22.9283 13.283C23.0181 13.283 23.0629 13.3839 23.0629 13.5859C23.0629 14.6628 22.861 15.6725 22.4572 16.6148C22.0533 17.5572 21.5148 18.3873 20.8417 19.1053C20.1686 19.8009 19.417 20.3506 18.5868 20.7544C17.7791 21.1583 16.9489 21.3602 16.0963 21.3602C15.2437 21.3602 14.5818 21.1359 14.1106 20.6871C13.6619 20.2384 13.4375 19.6102 13.4375 18.8024C13.4375 18.062 13.7292 17.2543 14.3126 16.3792C14.8959 15.5042 15.7149 14.674 16.7694 13.8888C17.8464 13.081 19.1028 12.4304 20.5388 11.9367C21.9972 11.4207 23.5902 11.1627 25.3179 11.1627C26.5294 11.1627 27.6401 11.3422 28.6497 11.7012C29.6594 12.0601 30.4671 12.5986 31.0729 13.3166C31.7011 14.0346 32.0153 14.9433 32.0153 16.0427C32.0153 16.7607 31.7797 17.4562 31.3085 18.1293C30.8598 18.78 30.2764 19.3634 29.5584 19.8794C28.8404 20.3955 28.0776 20.7993 27.2699 21.091C26.4621 21.3827 25.6993 21.5285 24.9813 21.5285C24.5326 21.5285 24.2072 21.4949 24.0053 21.4275C23.8258 21.3378 23.7361 21.2144 23.7361 21.0573C23.7361 20.9452 23.8146 20.8442 23.9716 20.7544C24.1511 20.6647 24.4765 20.6198 24.9476 20.6198C25.2169 20.6198 25.5198 20.6647 25.8563 20.7544C26.1929 20.8218 26.4846 20.9788 26.7314 21.2256C27.0006 21.4724 27.1352 21.8538 27.1352 22.3699C27.1352 23.0654 26.9557 23.6937 26.5968 24.2546C26.2602 24.8155 25.8676 25.3203 25.4188 25.7691C24.9701 26.1954 24.5662 26.5993 24.2072 26.9807C23.8707 27.3397 23.7024 27.6987 23.7024 28.0577C23.7024 28.3718 23.8146 28.5961 24.039 28.7308C24.2858 28.8654 24.5887 28.9327 24.9476 28.9327C25.5983 28.9327 26.249 28.7532 26.8997 28.3942C27.5728 28.0128 28.201 27.5192 28.7844 26.9134C29.3677 26.3076 29.8501 25.6569 30.2315 24.9614C30.6354 24.2658 30.8822 23.5815 30.972 22.9084C31.0168 22.6616 31.0841 22.5718 31.1739 22.6391C31.2861 22.7065 31.3534 22.8523 31.3758 23.0767C31.4656 23.6151 31.3197 24.2434 30.9383 24.9614C30.5793 25.6569 30.0745 26.3412 29.4238 27.0143C28.7956 27.665 28.1 28.2147 27.3372 28.6634C26.5968 29.0897 25.8788 29.3029 25.1832 29.3029Z" fill="black"/>
<path d="M20.1862 32.8856C20.2405 32.8946 20.2971 32.9014 20.3559 32.9059C20.4193 32.9059 20.4827 32.8992 20.5461 32.8856C20.5415 32.8901 20.5031 32.9444 20.4306 33.0485C20.3582 33.1481 20.2586 33.2839 20.1319 33.4559C20.0097 33.6234 19.8716 33.8135 19.7177 34.0262C19.5684 34.2389 19.4122 34.4585 19.2493 34.6848C19.0908 34.9066 18.9347 35.1238 18.7808 35.3366C18.6314 35.5448 18.4934 35.7349 18.3666 35.9069C18.2444 36.0789 18.1471 36.2169 18.0747 36.3211C18.0023 36.4252 17.9638 36.4795 17.9593 36.484C17.9593 36.484 17.9615 36.4885 17.9661 36.4976C17.9706 36.5021 17.9728 36.5066 17.9728 36.5112C18.086 36.3889 18.2082 36.2554 18.3395 36.1106C18.4707 35.9657 18.6043 35.8299 18.7401 35.7032C18.8758 35.5719 19.0094 35.4656 19.1406 35.3841C19.2764 35.3026 19.4009 35.2619 19.5141 35.2619C19.6589 35.2619 19.7517 35.2958 19.7924 35.3637C19.8377 35.4271 19.8603 35.4837 19.8603 35.5335C19.8603 35.6285 19.8286 35.7326 19.7653 35.8458C19.7019 35.9589 19.6227 36.0721 19.5276 36.1853C19.4371 36.2984 19.3443 36.4048 19.2493 36.5044C19.1587 36.5994 19.0818 36.6832 19.0184 36.7556C18.9551 36.828 18.9234 36.8801 18.9234 36.9117C18.9234 36.9479 18.9505 36.9706 19.0048 36.9796C19.0637 36.9842 19.1112 36.9864 19.1474 36.9864C19.2515 36.9864 19.3647 36.9479 19.4869 36.871C19.6091 36.7941 19.7291 36.699 19.8467 36.5858C19.9644 36.4727 20.0708 36.3618 20.1658 36.2532C20.2609 36.1445 20.3333 36.0585 20.3831 35.9952L20.4374 36.0359C20.3922 36.0902 20.3243 36.1739 20.2337 36.2871C20.1432 36.3957 20.0346 36.5112 19.9078 36.6334C19.7856 36.7511 19.6521 36.8529 19.5073 36.9389C19.3624 37.0204 19.2108 37.0611 19.0524 37.0611C18.9935 37.0611 18.9256 37.0453 18.8487 37.0136C18.7717 36.9864 18.7333 36.9253 18.7333 36.8303C18.7333 36.7533 18.7627 36.6651 18.8215 36.5655C18.8849 36.4614 18.9618 36.355 19.0524 36.2464C19.1429 36.1332 19.2334 36.0246 19.3239 35.9205C19.419 35.8164 19.4959 35.7213 19.5548 35.6353C19.6182 35.5448 19.6498 35.4724 19.6498 35.4181C19.6498 35.3592 19.6068 35.3298 19.5208 35.3298C19.4122 35.3298 19.2809 35.3818 19.1271 35.4859C18.9777 35.5855 18.8193 35.7191 18.6518 35.8865C18.4843 36.054 18.3168 36.2351 18.1494 36.4297C17.9864 36.6243 17.8348 36.8167 17.6945 37.0068C17.6356 36.9977 17.57 36.9932 17.4976 36.9932C17.4252 36.9932 17.3573 37.0023 17.2939 37.0204C17.2939 37.0204 17.3346 36.9638 17.4161 36.8506C17.4976 36.7329 17.6085 36.5768 17.7488 36.3822C17.8846 36.183 18.0385 35.9612 18.2105 35.7168C18.3825 35.4678 18.559 35.2144 18.7401 34.9564C18.9211 34.6938 19.0976 34.4404 19.2696 34.1959C19.4416 33.947 19.5955 33.7252 19.7313 33.5306C19.8716 33.3314 19.9825 33.1753 20.064 33.0621C20.1455 32.9444 20.1862 32.8856 20.1862 32.8856ZM21.5416 35.2687C21.7679 35.2687 21.8811 35.3773 21.8811 35.5946C21.8811 35.7621 21.8426 35.9341 21.7657 36.1106C21.6887 36.2826 21.5846 36.441 21.4533 36.5858C21.3221 36.7262 21.1795 36.8416 21.0256 36.9321C20.8717 37.0181 20.7156 37.0611 20.5571 37.0611C20.4349 37.0611 20.3331 37.0317 20.2516 36.9728C20.1656 36.9095 20.1226 36.8076 20.1226 36.6673C20.1226 36.5361 20.1611 36.3912 20.238 36.2328C20.315 36.0698 20.4191 35.9159 20.5503 35.7711C20.6861 35.6263 20.8378 35.5063 21.0052 35.4113C21.1772 35.3162 21.356 35.2687 21.5416 35.2687ZM21.6163 35.3637C21.5393 35.3637 21.4488 35.3977 21.3447 35.4656C21.2406 35.5335 21.1342 35.6217 21.0256 35.7304C20.917 35.839 20.8151 35.9567 20.7201 36.0834C20.6296 36.2056 20.5549 36.3256 20.496 36.4433C20.4417 36.5609 20.4146 36.6605 20.4146 36.742C20.4146 36.8325 20.4395 36.8959 20.4892 36.9321C20.539 36.9638 20.5956 36.9796 20.659 36.9796C20.7631 36.9796 20.8808 36.9366 21.012 36.8506C21.1433 36.7601 21.27 36.6469 21.3922 36.5112C21.5145 36.3754 21.614 36.2328 21.691 36.0834C21.7725 35.9295 21.8132 35.7892 21.8132 35.6625C21.8132 35.5448 21.7928 35.4656 21.7521 35.4248C21.7113 35.3841 21.6661 35.3637 21.6163 35.3637ZM21.7385 36.0631C21.7611 36.0631 21.7702 36.0721 21.7657 36.0902C21.7657 36.1038 21.7543 36.1106 21.7317 36.1106C21.7136 36.1106 21.6865 36.1355 21.6502 36.1853C21.6186 36.2305 21.5891 36.2781 21.562 36.3278C21.5348 36.3776 21.5212 36.4048 21.5212 36.4093C21.5212 36.5134 21.5597 36.5655 21.6367 36.5655C21.7091 36.5655 21.7906 36.5315 21.8811 36.4636C21.9761 36.3957 22.0667 36.3188 22.1527 36.2328C22.2432 36.1423 22.3156 36.0631 22.3699 35.9952L22.4242 36.0427C22.3654 36.1106 22.2907 36.1921 22.2002 36.2871C22.1097 36.3776 22.0146 36.4591 21.915 36.5315C21.8155 36.5994 21.7227 36.6334 21.6367 36.6334C21.5642 36.6334 21.5145 36.6175 21.4873 36.5858C21.4601 36.5542 21.4466 36.4976 21.4466 36.4161C21.4466 36.3075 21.4828 36.2215 21.5552 36.1581C21.6321 36.0947 21.6932 36.0631 21.7385 36.0631ZM23.7275 34.0669C23.7682 34.0851 23.827 34.0941 23.904 34.0941C23.9855 34.0896 24.0488 34.0828 24.0941 34.0737C23.9492 34.2729 23.7886 34.4924 23.612 34.7323C23.4355 34.9722 23.2567 35.2121 23.0757 35.452C22.8991 35.6874 22.7339 35.9092 22.58 36.1174C22.4307 36.3211 22.3107 36.4931 22.2202 36.6334C22.1297 36.7737 22.0844 36.8619 22.0844 36.8982C22.0844 36.9253 22.1002 36.9457 22.1319 36.9593C22.1591 36.9728 22.1953 36.9796 22.2406 36.9796C22.3401 36.9796 22.4488 36.9457 22.5665 36.8778C22.6887 36.8054 22.8086 36.7171 22.9263 36.613C23.0485 36.5044 23.1594 36.3957 23.259 36.2871C23.3631 36.1739 23.4446 36.0766 23.5034 35.9952L23.5577 36.0359C23.4943 36.1174 23.4106 36.2147 23.3065 36.3278C23.2024 36.441 23.087 36.5542 22.9602 36.6673C22.8335 36.7805 22.7022 36.8755 22.5665 36.9525C22.4352 37.0249 22.3085 37.0611 22.1862 37.0611C22.1002 37.0611 22.0323 37.043 21.9826 37.0068C21.9282 36.9751 21.9011 36.9185 21.9011 36.8371C21.9011 36.7646 21.9441 36.6537 22.0301 36.5044C22.1161 36.3505 22.227 36.1739 22.3628 35.9748C22.5031 35.7756 22.6547 35.5652 22.8177 35.3434C22.9806 35.1171 23.1413 34.8953 23.2997 34.678C23.4627 34.4562 23.6052 34.2525 23.7275 34.0669ZM22.9806 34.8274C22.9353 34.8274 22.9127 34.8138 22.9127 34.7866C22.9127 34.764 22.9353 34.7527 22.9806 34.7527H24.2706C24.2842 34.7527 24.2978 34.7549 24.3113 34.7595C24.3295 34.764 24.3385 34.7731 24.3385 34.7866C24.3385 34.8047 24.3295 34.8161 24.3113 34.8206C24.2978 34.8251 24.2842 34.8274 24.2706 34.8274H22.9806ZM23.809 37.0611C23.5963 37.0611 23.456 37.0136 23.3881 36.9185C23.3202 36.8189 23.2862 36.7148 23.2862 36.6062C23.2862 36.4206 23.3338 36.2486 23.4288 36.0902C23.5239 35.9273 23.6461 35.7824 23.7955 35.6557C23.9448 35.5289 24.0987 35.4316 24.2571 35.3637C24.4201 35.2913 24.5649 35.2551 24.6917 35.2551C24.7822 35.2551 24.8546 35.2687 24.9089 35.2958C24.9632 35.3185 24.9904 35.3683 24.9904 35.4452C24.9904 35.5176 24.9474 35.5946 24.8614 35.6761C24.7754 35.7575 24.6668 35.8367 24.5355 35.9137C24.4042 35.9861 24.2662 36.054 24.1213 36.1174C23.981 36.1762 23.852 36.2237 23.7343 36.2599C23.6167 36.2962 23.5307 36.3143 23.4763 36.3143C23.4763 36.3143 23.4763 36.3029 23.4763 36.2803C23.4763 36.2532 23.4763 36.2396 23.4763 36.2396C23.5171 36.2441 23.5872 36.2305 23.6868 36.1988C23.7909 36.1672 23.9063 36.1264 24.0331 36.0766C24.1598 36.0223 24.282 35.9612 24.3997 35.8933C24.5219 35.8254 24.6215 35.753 24.6985 35.6761C24.7799 35.5991 24.8207 35.5244 24.8207 35.452C24.8207 35.4158 24.8093 35.3841 24.7867 35.3569C24.7686 35.3298 24.7347 35.3162 24.6849 35.3162C24.6125 35.3162 24.5242 35.3524 24.4201 35.4248C24.3205 35.4927 24.2187 35.5833 24.1146 35.6964C24.0105 35.8096 23.9131 35.9295 23.8226 36.0563C23.7321 36.183 23.6574 36.3052 23.5986 36.4229C23.5442 36.5361 23.5171 36.6311 23.5171 36.7081C23.5171 36.7986 23.5442 36.8665 23.5986 36.9117C23.6529 36.957 23.7321 36.9796 23.8362 36.9796C24.0172 36.9796 24.187 36.9366 24.3454 36.8506C24.5083 36.7601 24.6555 36.656 24.7867 36.5383C24.918 36.4161 25.0289 36.3029 25.1194 36.1988C25.2099 36.0902 25.271 36.0201 25.3027 35.9884C25.3027 35.9884 25.3095 35.9952 25.3231 36.0087C25.3412 36.0223 25.3502 36.0291 25.3502 36.0291C25.3186 36.0653 25.2575 36.1377 25.1669 36.2464C25.0764 36.355 24.9632 36.4727 24.8275 36.5994C24.6917 36.7262 24.5378 36.8348 24.3658 36.9253C24.1938 37.0158 24.0082 37.0611 23.809 37.0611ZM27.4594 32.8856C27.5092 32.8946 27.5703 32.8992 27.6427 32.8992C27.7196 32.8992 27.7807 32.8946 27.826 32.8856L25.4633 36.1785C25.3909 36.2871 25.3207 36.3889 25.2528 36.484C25.1849 36.5791 25.1306 36.6628 25.0899 36.7352C25.0446 36.8031 25.022 36.8574 25.022 36.8982C25.022 36.9298 25.0355 36.9525 25.0627 36.9661C25.0853 36.9796 25.1193 36.9864 25.1645 36.9864C25.2686 36.9864 25.3841 36.9502 25.5108 36.8778C25.6375 36.8008 25.762 36.7058 25.8842 36.5926C26.011 36.4795 26.1264 36.3686 26.2305 36.2599C26.3391 36.1513 26.4251 36.0631 26.4885 35.9952L26.536 36.0359C26.4772 36.0993 26.3957 36.1875 26.2916 36.3007C26.1875 36.4138 26.0675 36.5293 25.9317 36.6469C25.8005 36.7601 25.6624 36.8574 25.5176 36.9389C25.3773 37.0204 25.2392 37.0611 25.1034 37.0611C25.031 37.0611 24.9699 37.0407 24.9201 37C24.8658 36.9593 24.8386 36.9004 24.8386 36.8235C24.8386 36.7737 24.8567 36.7103 24.893 36.6334C24.9292 36.5564 24.9744 36.4772 25.0287 36.3957C25.0785 36.3097 25.1283 36.2328 25.1781 36.1649C25.2234 36.0925 25.2596 36.0382 25.2867 36.0019L27.4594 32.8856Z" fill="black"/>
<path d="M26.7865 2.0108L24.9939 1.75027L24.1925 0.125681C24.1707 0.0812009 24.1346 0.0451931 24.0902 0.0233059C23.9786 -0.0317649 23.8431 0.0141275 23.7873 0.125681L22.9859 1.75027L21.1933 2.0108C21.1439 2.01786 21.0987 2.04116 21.0641 2.07646C21.0223 2.11945 20.9992 2.17728 21 2.23725C21.0008 2.29722 21.0254 2.35443 21.0683 2.39629L22.3653 3.6608L22.0589 5.44637C22.0517 5.4879 22.0563 5.53062 22.0722 5.56968C22.088 5.60874 22.1145 5.64257 22.1486 5.66734C22.1827 5.69211 22.2231 5.70683 22.2651 5.70983C22.3072 5.71283 22.3492 5.70398 22.3865 5.6843L23.9899 4.84129L25.5933 5.6843C25.6371 5.7076 25.6879 5.71537 25.7366 5.70689C25.8595 5.68571 25.9421 5.56922 25.9209 5.44637L25.6145 3.6608L26.9115 2.39629C26.9468 2.3617 26.9701 2.31651 26.9771 2.26709C26.9962 2.14353 26.9101 2.02915 26.7865 2.0108Z" fill="#E88E07"/>
<path d="M11.903 5.0088L11.0037 4.87809L10.6017 4.06305C10.5907 4.04074 10.5726 4.02267 10.5503 4.01169C10.4943 3.98406 10.4263 4.00709 10.3983 4.06305L9.99632 4.87809L9.09698 5.0088C9.07218 5.01234 9.04951 5.02403 9.03216 5.04174C9.01118 5.0633 8.99961 5.09232 9.00001 5.12241C9.00041 5.15249 9.01274 5.18119 9.03428 5.2022L9.68497 5.83659L9.53124 6.73239C9.52764 6.75323 9.52994 6.77466 9.5379 6.79425C9.54585 6.81385 9.55914 6.83082 9.57625 6.84325C9.59336 6.85567 9.61361 6.86306 9.63471 6.86456C9.6558 6.86607 9.67689 6.86163 9.6956 6.85176L10.5 6.42883L11.3044 6.85176C11.3264 6.86345 11.3519 6.86734 11.3763 6.86309C11.438 6.85246 11.4794 6.79402 11.4688 6.73239L11.315 5.83659L11.9657 5.2022C11.9834 5.18484 11.9951 5.16217 11.9987 5.13737C12.0082 5.07539 11.965 5.01801 11.903 5.0088Z" fill="#E88E07"/>
<path d="M35.0409 4.26675L33.2319 4.00385L32.4233 2.36449C32.4012 2.31961 32.3649 2.28327 32.32 2.26119C32.2074 2.20562 32.0706 2.25193 32.0143 2.36449L31.2057 4.00385L29.3968 4.26675C29.3469 4.27387 29.3013 4.29739 29.2664 4.33301C29.2242 4.37639 29.2009 4.43475 29.2017 4.49526C29.2025 4.55578 29.2273 4.6135 29.2707 4.65575L30.5795 5.93176L30.2703 7.73356C30.263 7.77547 30.2676 7.81858 30.2836 7.85799C30.2996 7.8974 30.3264 7.93154 30.3608 7.95654C30.3952 7.98154 30.4359 7.99639 30.4784 7.99941C30.5208 8.00244 30.5632 7.99352 30.6008 7.97365L32.2188 7.12298L33.8368 7.97365C33.881 7.99717 33.9323 8.005 33.9814 7.99645C34.1054 7.97508 34.1888 7.85752 34.1674 7.73356L33.8582 5.93176L35.167 4.65575C35.2026 4.62084 35.2261 4.57524 35.2332 4.52537C35.2525 4.40069 35.1655 4.28527 35.0409 4.26675Z" fill="#E88E07"/>
<path d="M18.4609 2.55013L17.0789 2.34929L16.4611 1.09689C16.4443 1.0626 16.4165 1.03484 16.3822 1.01797C16.2962 0.975512 16.1917 1.01089 16.1487 1.09689L15.531 2.34929L14.149 2.55013C14.1109 2.55558 14.0761 2.57354 14.0494 2.60075C14.0172 2.63389 13.9994 2.67848 14 2.72471C14.0006 2.77094 14.0196 2.81504 14.0527 2.84731L15.0525 3.82213L14.8163 5.19863C14.8108 5.23065 14.8143 5.26359 14.8265 5.29369C14.8388 5.3238 14.8592 5.34989 14.8855 5.36898C14.9118 5.38808 14.9429 5.39942 14.9753 5.40174C15.0077 5.40405 15.0401 5.39723 15.0689 5.38206L16.3049 4.73218L17.541 5.38206C17.5748 5.40002 17.6139 5.40601 17.6515 5.39947C17.7462 5.38315 17.8099 5.29334 17.7936 5.19863L17.5573 3.82213L18.5572 2.84731C18.5844 2.82064 18.6024 2.78581 18.6078 2.74771C18.6225 2.65246 18.5561 2.56429 18.4609 2.55013Z" fill="#E88E07"/>
</svg>
